<?xml version="1.0" standalone="no"?>
<!DOCTYPE svg PUBLIC "-//W3C//DTD SVG 20010904//EN"
 "http://www.w3.org/TR/2001/REC-SVG-20010904/DTD/svg10.dtd">
<svg version="1.0" xmlns="http://www.w3.org/2000/svg"
 width="1328.000000pt" height="1328.000000pt" viewBox="0 0 1328.000000 1328.000000"
 preserveAspectRatio="xMidYMid meet">

<g transform="translate(0.000000,1328.000000) scale(0.100000,-0.100000)"
fill="#000000" stroke="none">
<path d="M8235 11604 c-44 -8 -127 -30 -185 -48 -58 -19 -141 -44 -185 -56
-66 -19 -209 -80 -335 -143 -14 -7 -28 -26 -34 -45 -7 -26 -20 -37 -71 -62
-72 -35 -140 -103 -174 -173 -13 -27 -34 -60 -47 -74 -13 -14 -24 -30 -24 -34
0 -5 -4 -9 -10 -9 -5 0 -10 7 -10 15 0 16 -35 55 -49 55 -5 0 -12 -30 -16 -67
-4 -38 -15 -105 -26 -151 -20 -80 -20 -118 -3 -232 7 -46 -15 -27 -25 22 -5
24 -12 33 -26 33 -16 0 -21 -8 -23 -37 -3 -38 30 -118 49 -118 6 0 8 -8 5 -17
-3 -10 -8 -44 -12 -75 -6 -54 -5 -58 14 -58 12 0 29 14 42 35 12 19 26 35 31
35 11 0 11 -3 -1 -34 -37 -98 -28 -393 15 -525 14 -40 25 -75 25 -77 0 -2 -13
-4 -29 -4 -44 0 -61 -10 -61 -36 0 -18 7 -24 34 -30 43 -8 38 -34 -6 -34 -19
0 -40 -10 -59 -29 -25 -25 -29 -37 -29 -83 0 -30 7 -79 16 -109 22 -76 95
-229 109 -229 7 0 18 -13 25 -29 6 -16 21 -39 32 -51 18 -19 22 -20 29 -7 10
17 -7 73 -39 127 -24 41 -86 217 -96 273 -10 51 5 67 61 67 37 0 50 -5 74 -31
32 -34 32 -37 29 -121 -2 -49 1 -58 15 -58 10 0 24 8 31 17 11 16 13 16 19 -9
4 -15 5 -69 3 -120 -3 -87 -5 -96 -36 -139 -43 -59 -40 -91 10 -132 29 -23 51
-31 92 -35 54 -4 55 -5 45 -31 -27 -69 -6 -224 32 -236 11 -4 19 -13 19 -20 0
-8 11 -35 25 -62 22 -41 25 -55 19 -101 -6 -49 -5 -54 15 -59 25 -6 27 -28 6
-49 -8 -9 -15 -26 -15 -40 0 -27 26 -32 61 -14 15 9 19 7 19 -5 0 -9 7 -29 15
-45 15 -30 16 -30 101 -30 87 0 103 -6 117 -42 4 -11 17 -18 32 -18 24 0 25 3
25 52 l0 52 43 -41 c53 -51 77 -60 84 -33 4 16 14 20 44 20 48 0 50 -12 5 -38
-32 -19 -96 -125 -96 -159 0 -7 -11 -13 -25 -13 -36 0 -63 -32 -70 -84 -9 -56
4 -94 55 -171 22 -33 40 -63 40 -66 0 -4 -10 -9 -22 -13 -35 -8 -142 -103
-199 -176 -73 -91 -98 -133 -136 -228 -46 -114 -61 -178 -73 -307 -15 -153
-23 -176 -86 -247 -62 -69 -94 -125 -94 -162 0 -13 -6 -26 -14 -29 -7 -3 -17
-18 -20 -34 -4 -15 -31 -82 -61 -148 -63 -143 -133 -357 -169 -516 -14 -62
-39 -167 -56 -233 -16 -65 -30 -127 -30 -137 0 -33 -43 -109 -62 -109 -9 0
-42 -9 -73 -21 -50 -19 -55 -23 -55 -51 l0 -30 45 26 c56 34 58 20 3 -25 -70
-57 -98 -87 -98 -103 0 -18 21 -21 37 -5 8 8 13 7 18 -1 9 -15 -8 -26 -53 -35
-19 -3 -51 -18 -72 -31 -20 -14 -77 -40 -125 -59 -90 -36 -125 -58 -125 -81 0
-10 -13 -8 -55 6 -117 40 -344 53 -432 24 -82 -26 -256 -117 -290 -152 -18
-17 -37 -32 -42 -32 -6 0 -14 -7 -19 -15 -15 -28 -256 16 -400 74 -99 39 -192
21 -192 -39 0 -18 -7 -20 -67 -20 -79 -1 -145 -12 -164 -28 -75 -62 -126 -115
-165 -168 -68 -96 -91 -155 -99 -256 l-7 -87 -22 27 c-22 26 -68 124 -291 612
-56 124 -130 284 -162 355 -110 238 -130 289 -201 500 -39 116 -94 264 -122
330 -29 66 -67 158 -85 205 -49 126 -152 340 -164 340 -6 0 -11 6 -11 13 0 7
-9 19 -20 27 -13 9 -20 26 -20 47 0 53 -26 63 -158 63 -314 0 -1431 -101
-1440 -130 -2 -5 -14 -10 -27 -10 -13 0 -36 -11 -51 -24 -24 -20 -28 -32 -32
-89 -3 -52 0 -75 16 -109 12 -24 41 -88 65 -143 89 -201 550 -1142 566 -1155
3 -3 52 -99 109 -215 l103 -210 -28 -3 c-78 -8 -208 -63 -287 -120 -47 -34
-155 -170 -209 -262 -36 -63 -73 -180 -87 -277 -7 -46 -16 -83 -20 -83 -15 0
-21 -90 -10 -151 17 -91 42 -133 201 -339 135 -176 259 -353 259 -370 0 -5
-18 -1 -41 8 -35 13 -42 14 -50 1 -14 -22 -11 -49 6 -49 8 0 15 -4 15 -9 0 -5
20 -14 44 -20 38 -9 60 -27 146 -119 55 -59 128 -146 161 -192 l61 -85 -38 -3
c-54 -4 -174 13 -274 38 -250 62 -530 80 -647 41 -32 -11 -92 -27 -134 -36
-135 -28 -278 -111 -351 -202 -67 -84 -82 -128 -86 -253 -4 -105 -1 -123 23
-195 28 -86 61 -148 108 -206 33 -43 125 -79 199 -79 35 0 66 -11 134 -47 49
-26 123 -60 164 -75 l75 -27 -126 0 c-69 -1 -160 -4 -202 -7 -64 -6 -77 -10
-77 -24 0 -11 10 -20 28 -24 15 -3 180 -8 367 -12 229 -5 342 -11 347 -18 5
-8 178 -12 583 -14 396 -2 575 -6 575 -13 0 -6 27 -38 60 -70 l61 -59 -63 -1
c-83 -1 -166 -13 -179 -26 -6 -6 -8 -21 -4 -33 l7 -23 194 6 c107 3 194 2 194
-3 0 -9 93 -50 139 -61 19 -4 273 -8 565 -9 l531 -2 180 61 c196 67 272 85
416 101 212 23 387 69 510 135 38 20 61 25 123 25 47 0 76 -4 76 -11 0 -7 472
-9 1588 -6 1552 5 1731 9 1740 37 2 5 30 10 62 10 32 0 60 5 62 10 2 7 195 12
578 16 556 5 772 14 825 34 42 16 19 30 -50 30 -42 0 -65 4 -67 13 -4 9 -82
13 -336 15 -267 3 -332 6 -332 16 0 21 -32 26 -195 33 -118 5 -152 9 -159 21
-7 13 -11 12 -25 -7 -13 -17 -25 -22 -52 -19 l-34 3 57 33 c75 44 179 156 218
234 34 68 48 88 61 88 5 0 9 -9 9 -20 0 -11 4 -20 9 -20 5 0 11 -10 15 -23 6
-27 44 -47 86 -47 25 0 38 11 78 61 26 34 77 98 114 143 37 44 85 115 105 156
32 65 38 84 38 145 0 39 -4 82 -8 97 -9 27 -9 27 22 15 28 -10 33 -9 46 10 9
12 38 28 68 37 66 19 116 52 142 93 16 25 27 32 52 33 74 1 114 45 149 165 9
33 22 64 29 70 22 18 73 197 105 370 17 94 43 224 56 290 31 148 47 381 42
621 -3 162 -5 184 -22 203 -11 12 -25 21 -31 21 -10 0 -11 10 -3 43 10 43 1
187 -11 187 -4 0 -4 24 0 53 4 28 8 377 8 775 1 611 3 722 15 722 39 0 115
186 103 254 -3 17 -20 114 -37 216 -17 102 -40 227 -51 279 -35 161 -135 424
-182 481 -14 16 -28 39 -32 50 -3 11 -13 20 -21 20 -8 0 -14 7 -14 15 0 8 -22
61 -49 117 -27 57 -59 132 -71 168 -13 36 -28 70 -34 75 -13 12 -62 117 -58
123 2 2 -8 16 -22 31 l-27 28 63 6 c35 3 83 13 108 22 25 9 79 17 121 18 65 2
80 6 111 29 79 60 138 184 138 286 0 105 -69 247 -172 351 -51 53 -150 124
-189 136 -17 6 -19 17 -19 110 0 57 -5 116 -11 132 -34 89 -145 165 -272 185
-95 14 -336 -2 -450 -31 -67 -18 -98 -20 -220 -15 -113 5 -156 3 -212 -10 -83
-20 -165 -63 -221 -118 l-41 -39 -21 48 c-11 26 -23 65 -27 86 -4 21 -15 45
-23 54 -24 24 -21 125 6 193 31 79 29 222 -4 332 -3 10 2 19 16 23 11 3 20 13
20 21 0 8 4 14 9 14 16 0 21 28 41 226 35 343 25 570 -33 714 -20 47 -22 60
-10 60 7 0 25 11 38 25 69 68 -11 206 -165 285 -30 16 -79 42 -109 58 l-54 30
35 15 c20 9 41 25 48 36 10 20 8 21 -41 21 -35 0 -60 -6 -79 -20 -15 -11 -40
-24 -55 -30 l-27 -10 7 42 c9 56 13 61 41 55 15 -2 24 1 24 8 0 7 3 27 6 44 6
29 5 31 -24 31 -34 0 -87 -39 -97 -70 -8 -25 -31 -26 -44 -1 -11 19 -79 67
-154 109 -48 25 -127 31 -127 8 0 -10 18 -16 59 -21 37 -4 62 -12 65 -21 6
-17 13 -16 -98 -4 -75 9 -93 15 -112 35 -23 24 -26 25 -166 24 -79 0 -179 -7
-223 -15z m55 -119 c-14 -8 -36 -14 -50 -15 -14 0 -41 -9 -60 -19 -76 -43
-156 -81 -167 -81 -33 0 -6 23 70 61 108 55 144 68 192 68 40 0 40 0 15 -14z
m148 -25 c-9 -6 -41 -15 -70 -20 -29 -5 -90 -22 -136 -36 -79 -25 -108 -26
-85 -3 5 5 34 16 64 24 30 7 72 20 94 29 45 17 162 22 133 6z m-897 -367 c-5
-10 -31 -43 -57 -73 -26 -30 -67 -85 -90 -122 -41 -64 -64 -84 -64 -56 0 19
70 140 108 187 47 58 127 107 103 64z m69 -88 c0 -9 -62 -75 -71 -75 -14 0 18
57 38 69 19 11 33 14 33 6z m1497 -122 c26 -20 78 -65 115 -99 38 -35 85 -72
105 -83 60 -30 77 -54 68 -97 l-6 -37 -34 33 c-38 37 -82 66 -165 107 -40 20
-54 33 -52 46 2 9 -2 17 -10 17 -7 0 -39 23 -71 50 -32 28 -65 50 -73 50 -45
0 19 -81 131 -165 77 -58 105 -83 105 -94 0 -5 10 -13 22 -17 12 -3 42 -21 67
-39 25 -18 56 -36 69 -39 18 -6 22 -14 21 -44 -1 -20 -4 -49 -8 -63 l-6 -27
-95 24 c-136 34 -204 30 -171 -10 17 -20 131 -46 200 -46 50 0 62 -3 71 -20 6
-12 9 -80 8 -177 l-3 -158 -19 43 c-10 23 -24 42 -29 42 -6 0 -33 25 -62 55
-50 54 -52 55 -105 55 -110 0 -235 -88 -275 -193 -17 -45 -19 -47 -57 -47 -21
0 -62 -9 -91 -19 -138 -50 -609 -232 -634 -244 -15 -8 -47 -17 -70 -20 -37 -4
-42 -2 -47 18 -3 13 -15 27 -26 30 -11 3 -20 12 -20 20 0 7 -26 26 -57 42 -55
27 -57 29 -40 46 9 9 23 17 31 17 13 0 26 20 26 40 0 33 -153 29 -267 -6 -69
-22 -118 -63 -109 -91 4 -12 18 -24 32 -27 l26 -7 -27 -21 c-14 -11 -40 -45
-56 -74 -26 -46 -37 -55 -72 -65 -23 -6 -52 -19 -65 -30 -35 -27 -41 -24 -35
21 3 22 2 40 -3 40 -5 0 -25 14 -44 29 l-34 29 23 20 c37 29 22 49 -49 63
l-62 12 5 266 c3 146 8 278 12 292 7 27 19 31 202 74 78 18 172 65 222 110 45
41 65 45 56 13 -4 -13 -9 -31 -12 -42 -9 -32 21 -13 40 27 18 36 20 37 75 37
35 0 74 8 101 20 48 22 71 25 71 10 0 -6 24 3 53 19 77 43 97 47 97 21 0 -20
3 -21 43 -15 57 10 98 28 121 54 27 29 44 26 48 -9 l3 -30 75 48 c130 83 222
128 315 155 50 14 128 41 175 60 117 48 164 48 227 0z m31 -789 c14 -4 22 -14
23 -28 0 -20 1 -20 9 -1 7 15 9 10 9 -22 1 -24 5 -43 10 -43 10 0 14 -10 25
-62 4 -16 13 -28 20 -28 17 0 26 31 26 98 0 37 4 52 14 52 25 0 35 -26 51
-131 16 -103 13 -267 -6 -329 l-7 -25 -2 25 c-2 19 -4 15 -11 -15 -21 -95 -17
-89 -44 -71 -15 10 -26 12 -30 6 -3 -6 -27 -10 -53 -10 -70 0 -118 -17 -146
-51 -70 -82 9 -169 153 -169 40 0 49 5 88 46 25 25 46 44 47 42 2 -1 8 -21 14
-43 14 -54 122 -300 162 -370 18 -31 43 -69 56 -84 l24 -29 -123 -128 c-68
-71 -150 -160 -182 -199 -33 -38 -120 -142 -195 -230 -270 -318 -491 -606
-595 -778 -71 -117 -73 -205 -3 -129 14 15 101 126 194 247 249 327 401 514
677 837 130 152 350 358 576 540 75 61 140 140 121 146 -19 7 -258 -117 -279
-144 -10 -13 -23 -24 -27 -24 -5 0 -29 -17 -54 -39 l-44 -38 -28 59 c-16 32
-39 88 -53 123 -20 53 -21 65 -9 65 8 0 19 11 24 26 7 17 27 33 62 48 123 54
261 70 396 46 71 -13 122 -9 297 24 94 18 234 20 304 5 104 -22 179 -93 218
-208 l22 -66 -57 -7 c-31 -4 -79 -15 -107 -24 -121 -40 -429 -170 -533 -225
-116 -60 -222 -128 -222 -141 0 -14 32 -8 64 11 47 29 223 101 541 220 55 21
145 59 199 85 54 25 100 46 101 46 1 0 5 -30 9 -67 15 -161 56 -228 66 -109
l5 59 92 -96 c111 -116 134 -166 140 -302 2 -49 1 -121 -4 -159 -9 -76 -26
-97 -92 -116 -33 -9 -33 -9 -15 11 10 11 33 27 51 34 18 8 33 21 33 29 0 22
-12 20 -80 -14 -86 -44 -162 -60 -271 -61 -74 0 -110 5 -155 21 -150 55 -180
62 -295 67 -131 6 -312 -12 -334 -33 -8 -8 -34 -14 -63 -14 -62 0 -138 -23
-312 -95 -219 -90 -379 -196 -615 -406 -137 -122 -280 -283 -321 -362 l-15
-28 24 16 c14 9 48 42 76 75 32 36 57 57 66 54 22 -9 54 14 140 96 237 228
580 439 860 529 212 69 258 76 475 76 180 0 199 -2 243 -22 26 -12 47 -29 47
-37 0 -20 -2 -20 -45 -2 -34 14 -35 14 -35 -7 0 -13 27 -53 66 -97 68 -78 106
-141 119 -198 4 -18 15 -41 26 -51 11 -10 29 -57 43 -113 26 -102 50 -158 89
-204 33 -39 110 -180 141 -257 31 -78 42 -153 56 -367 10 -169 22 -317 40
-475 19 -174 22 -275 10 -275 -6 0 -72 -55 -146 -122 -156 -140 -197 -198
-140 -198 29 0 71 29 203 136 57 46 105 84 106 84 2 0 7 -237 11 -527 4 -291
9 -553 11 -583 2 -30 2 -45 -1 -32 -3 13 -12 26 -20 29 -8 3 -14 17 -14 32 0
14 -4 33 -10 41 -18 30 -23 -3 -11 -75 14 -86 6 -214 -16 -230 -7 -5 -16 -33
-19 -61 l-7 -52 -50 -5 c-28 -2 -53 -10 -55 -16 -2 -6 -13 -11 -23 -11 -29 0
-59 -18 -59 -35 0 -8 -6 -15 -13 -15 -7 0 -20 -12 -29 -27 -17 -28 -17 -28
-117 -25 l-101 4 0 -134 c0 -73 -7 -189 -15 -258 -8 -69 -19 -199 -26 -290
-11 -158 -13 -166 -38 -188 -22 -20 -24 -25 -11 -34 14 -9 12 -25 -16 -137
-18 -69 -44 -157 -59 -195 -30 -81 -30 -120 1 -124 18 -3 23 3 27 35 2 21 21
77 41 126 21 48 47 133 60 187 12 55 29 106 37 114 7 7 29 16 46 19 30 6 33 4
39 -21 3 -15 9 -37 13 -50 l6 -23 62 31 c79 40 91 54 68 80 -27 30 -81 43
-152 37 -46 -5 -63 -3 -63 6 0 7 10 118 22 247 12 129 22 299 23 377 l0 143
35 -6 c78 -12 80 -13 80 -42 0 -93 -48 -276 -82 -312 -15 -16 -18 -27 -11 -42
8 -19 9 -19 36 2 41 32 55 67 87 214 16 72 34 144 39 159 l11 27 109 0 c60 0
121 -4 135 -10 l26 -10 0 -181 c0 -175 -5 -208 -19 -137 -6 28 -11 33 -36 33
-28 0 -30 -3 -33 -44 -2 -32 2 -52 17 -71 41 -56 52 -99 41 -157 -19 -106 -29
-133 -51 -133 -11 0 -51 16 -89 35 -76 38 -219 89 -227 81 -10 -9 17 -61 38
-74 28 -18 246 -112 258 -112 20 0 20 -20 2 -116 -21 -115 -129 -524 -142
-540 -11 -13 -179 -37 -201 -29 -8 3 -37 32 -65 63 -36 41 -63 62 -91 70 -65
20 -72 17 -72 -28 0 -54 19 -88 79 -142 50 -45 50 -45 26 -56 -14 -7 -28 -25
-33 -45 -10 -37 -5 -87 9 -87 5 0 9 -7 9 -15 0 -28 -17 -15 -36 27 -47 106
-167 258 -215 273 -30 10 -37 -4 -12 -24 27 -23 105 -178 128 -256 29 -98 24
-162 -18 -247 -49 -100 -111 -195 -160 -245 -23 -24 -44 -43 -48 -43 -3 0 -10
28 -13 62 -4 35 -18 96 -32 136 -26 79 -87 207 -104 217 -17 10 -11 25 10 25
11 0 38 19 60 43 42 44 130 205 130 238 0 42 -29 13 -97 -99 -78 -128 -104
-158 -128 -149 -16 7 -24 19 -95 149 -25 45 -60 97 -77 116 -18 19 -33 37 -33
39 0 2 13 21 30 41 44 56 60 114 67 244 5 104 4 118 -10 118 -17 0 -18 -5 -38
-145 -12 -92 -51 -187 -87 -216 -39 -31 -65 -24 -100 25 -17 24 -59 77 -93
117 -34 41 -85 106 -114 144 -28 39 -74 93 -101 120 -77 80 -264 243 -316 277
-26 17 -50 38 -53 47 -7 22 -89 77 -145 97 -28 10 -98 18 -185 23 -86 4 -150
12 -165 20 -66 36 -492 289 -540 321 -30 20 -72 42 -92 49 -20 7 -96 50 -169
97 -142 92 -490 294 -506 294 -6 0 -17 7 -24 16 -13 15 -6 16 81 10 94 -7 150
-2 150 15 0 20 -48 29 -194 35 -108 5 -159 11 -167 20 -14 17 38 27 151 29 47
0 139 3 205 5 109 3 114 4 55 10 -63 6 -62 7 32 8 l98 2 -12 -25 c-10 -21 -7
-35 12 -82 13 -31 33 -89 45 -127 15 -49 27 -72 39 -74 16 -4 18 5 14 105 -4
122 -23 179 -64 189 -13 3 -24 9 -24 13 0 11 170 29 325 37 269 12 743 83 753
113 2 6 14 11 27 11 12 0 29 7 36 16 13 16 -1 16 -186 11 -110 -3 -274 -15
-365 -26 -91 -11 -228 -27 -305 -35 -84 -9 -176 -26 -230 -42 -82 -25 -110
-28 -320 -34 -220 -6 -233 -8 -303 -35 l-74 -28 -136 66 c-194 93 -265 124
-301 132 -53 12 -34 22 49 27 60 4 88 10 108 25 23 17 166 73 186 73 4 0 33
-25 66 -55 63 -58 90 -68 90 -35 0 46 -80 158 -134 187 -28 16 -14 72 35 133
l41 51 87 -6 c95 -8 131 2 131 35 0 21 -39 33 -107 32 -24 0 -43 4 -43 9 0 18
39 125 116 314 42 105 98 244 124 310 27 66 65 158 85 205 20 47 48 117 62
155 14 39 41 108 61 154 34 80 36 83 44 56 4 -16 12 -106 18 -200 6 -93 15
-217 20 -275 13 -134 13 -277 0 -282 -12 -4 -27 -125 -40 -323 -14 -217 -15
-220 -63 -278 -42 -51 -90 -101 -121 -125 -9 -7 -16 -19 -16 -27 0 -18 108 -9
131 12 9 8 24 42 34 76 11 43 25 70 46 87 26 23 30 35 44 130 8 58 15 139 15
182 0 43 4 78 10 80 6 2 15 66 20 148 12 177 28 294 46 339 20 48 19 486 -1
646 -17 140 -19 244 -4 300 6 22 17 68 25 103 20 89 54 169 106 249 48 73 193
243 208 243 5 0 32 -39 61 -87 77 -130 238 -365 263 -385 35 -29 56 -23 56 16
0 26 -27 79 -112 217 -172 284 -226 378 -258 456 -36 85 -37 107 -8 153 11 19
31 54 42 77 21 40 130 163 145 163 3 0 12 8 19 18 10 13 24 16 57 14 l44 -4
37 -113 38 -113 -29 -33 c-51 -62 -57 -89 -63 -294 -4 -158 -2 -196 11 -228
15 -35 41 -56 53 -44 3 3 14 76 25 164 11 87 24 185 29 218 6 33 13 75 16 94
l5 34 20 -32 c16 -27 22 -30 39 -21 53 28 29 214 -48 372 l-28 57 35 25 c20
14 73 50 118 80 51 35 97 75 122 108 39 53 101 166 101 186 0 17 51 72 67 72
12 0 13 8 8 38 -5 32 -2 41 25 70 16 18 30 40 30 48 0 8 5 14 10 14 19 0 10
55 -20 134 -27 68 -67 239 -101 425 -12 67 -25 91 -48 91 -24 0 -31 -55 -20
-159 10 -85 29 -150 70 -237 21 -43 31 -86 39 -155 14 -132 14 -129 -15 -129
-23 0 -25 -3 -22 -47 2 -44 0 -48 -43 -79 -90 -67 -100 -76 -100 -95 0 -26
-17 -43 -59 -57 -46 -16 -71 -40 -71 -68 0 -22 -3 -23 -45 -17 -43 6 -45 5
-56 -25 -7 -20 -21 -34 -41 -41 -17 -6 -32 -11 -33 -11 -2 0 -6 11 -9 24 -3
13 -22 38 -41 55 -60 52 -75 36 -26 -27 37 -48 47 -78 26 -86 -9 -3 -15 0 -15
10 0 34 -78 134 -105 134 -24 0 -18 -23 25 -103 34 -63 38 -76 25 -81 -9 -3
-30 1 -47 10 l-31 16 7 -33 c6 -31 5 -31 -12 -16 -10 10 -24 17 -30 17 -7 0
-12 5 -12 12 0 22 -45 78 -63 78 -28 0 -29 -21 -3 -95 13 -39 22 -72 20 -74
-2 -3 -15 6 -28 18 -21 19 -24 20 -30 6 -3 -9 -6 -25 -6 -36 0 -10 -4 -19 -10
-19 -5 0 -10 5 -10 11 0 5 -4 7 -10 4 -5 -3 -12 7 -16 22 -12 57 -26 83 -45
83 -11 0 -19 -5 -19 -12 0 -7 -7 -5 -17 5 -10 8 -30 18 -45 22 -15 4 -29 13
-32 21 -8 21 -37 17 -43 -6 -4 -16 -14 -20 -48 -20 -27 0 -47 6 -56 16 -9 11
-25 15 -51 12 -25 -2 -38 1 -38 8 0 7 -4 14 -9 16 -4 2 -15 33 -23 69 l-14 66
94 22 c74 17 109 20 168 15 71 -6 75 -6 81 14 4 17 9 19 30 11 33 -12 33 -12
33 16 0 24 -31 65 -49 65 -4 0 -6 11 -3 25 6 33 -4 65 -29 95 -20 24 -21 24
-35 5 -19 -26 -18 -56 4 -62 10 -2 23 -18 29 -34 l11 -29 -46 0 c-87 0 -221
-20 -272 -40 l-50 -20 0 26 c0 14 4 23 9 19 14 -8 28 23 32 70 3 31 0 40 -13
43 -15 3 -18 -4 -18 -32 0 -19 -4 -38 -10 -41 -6 -4 -10 11 -10 39 0 24 -3 51
-6 60 -5 13 2 16 45 16 38 0 56 5 71 20 38 38 27 45 -95 57 -64 6 -119 13
-122 17 -3 3 8 37 26 75 43 93 56 161 47 244 -7 61 -10 67 -31 67 -21 0 -35
17 -35 41 0 15 77 10 94 -7 9 -8 16 -29 16 -45 0 -75 87 -227 149 -258 20 -11
42 -30 48 -44 6 -13 32 -35 58 -47 39 -19 58 -22 115 -18 98 7 153 41 188 117
36 78 43 229 15 347 l-20 82 34 10 c19 6 33 6 33 1 0 -22 82 -5 199 41 69 28
225 97 346 153 182 86 222 101 233 90 22 -21 29 -16 56 43 14 30 45 77 68 104
43 50 64 57 116 44z m-1308 -396 c92 -47 157 -189 167 -365 10 -166 -23 -209
-162 -207 -99 0 -125 9 -125 39 0 14 -18 61 -40 105 -22 44 -51 108 -64 142
-13 35 -33 79 -45 98 -33 55 -25 124 18 157 74 57 175 69 251 31z m1404 -247
c6 -10 -26 -21 -61 -21 -33 0 -28 -19 7 -26 25 -6 28 -9 19 -25 -14 -27 -79
-27 -86 1 -3 11 -9 20 -14 20 -19 0 6 33 35 46 36 15 92 18 100 5z m1837
-1937 c8 -9 17 -53 20 -98 5 -58 18 -110 47 -186 70 -183 162 -565 162 -672 0
-52 -24 -138 -50 -178 -21 -33 -33 15 -55 217 -29 261 -35 295 -95 528 -40
155 -49 210 -53 298 -2 59 -1 107 3 107 4 0 14 -7 21 -16z m-7683 -808 c2 -21
10 -48 17 -60 8 -12 30 -61 49 -111 19 -49 67 -169 107 -265 94 -229 223 -552
265 -665 57 -150 87 -219 222 -505 71 -151 157 -345 191 -430 86 -213 141
-316 200 -374 l50 -49 -21 -28 c-19 -25 -20 -33 -9 -68 12 -42 42 -71 73 -71
14 0 18 11 20 58 l3 57 181 3 c99 1 197 -1 218 -5 l38 -8 -102 -107 c-142
-150 -402 -379 -705 -623 -104 -83 -231 -195 -281 -248 -92 -97 -114 -112
-114 -80 0 26 199 217 320 308 143 108 275 219 473 398 181 164 181 165 82
167 -27 0 -68 5 -90 10 -22 5 -89 14 -150 20 -60 7 -152 20 -203 31 -51 10
-162 26 -245 34 -84 9 -318 34 -522 55 -203 22 -406 42 -450 46 -44 4 -87 10
-96 15 -9 5 -58 93 -109 196 -51 103 -182 368 -290 588 -109 220 -226 461
-260 535 -176 385 -413 881 -456 951 -19 31 -34 61 -34 67 0 13 216 28 655 46
100 4 792 56 823 62 13 3 20 9 16 15 -13 21 -788 -7 -832 -30 -18 -10 -249
-28 -482 -37 -117 -4 -141 -3 -125 7 11 7 83 18 160 25 77 7 241 22 365 33
124 11 374 32 555 46 182 14 339 27 350 29 11 2 47 3 80 2 l60 -1 3 -39z
m1806 -1900 c50 -19 119 -40 154 -46 34 -7 65 -16 67 -21 3 -4 -66 -7 -152 -6
-190 2 -285 -9 -281 -32 6 -32 49 -41 208 -40 151 0 239 11 289 38 13 7 25 10
28 7 9 -8 -27 -46 -59 -62 -15 -8 -53 -47 -85 -87 -110 -139 -213 -245 -254
-261 -35 -14 -62 -14 -276 -1 -131 8 -239 15 -240 15 -11 0 1 47 18 71 11 16
22 37 24 48 4 24 52 118 62 123 4 1 25 28 45 58 51 75 112 140 132 140 25 0
19 -13 -32 -66 -58 -60 -137 -178 -157 -233 -14 -41 -14 -41 10 -41 17 0 38
17 72 57 26 31 75 89 109 128 33 39 65 84 71 100 7 22 17 31 36 33 15 2 27 7
27 12 0 5 14 16 30 25 23 12 30 22 30 45 0 39 10 38 124 -4z m5924 -342 c16
-5 22 -14 22 -33 l0 -28 -67 23 c-38 13 -76 24 -85 24 -10 0 -18 5 -18 10 0
11 111 14 148 4z m-7742 -750 c21 -15 89 -77 149 -139 64 -65 151 -140 208
-180 98 -69 117 -88 117 -122 0 -17 -2 -16 -18 2 -9 11 -44 38 -76 60 -33 22
-114 92 -180 155 -67 63 -151 143 -189 176 -37 34 -67 64 -67 68 0 12 18 6 56
-20z m2776 -588 c108 -39 729 -556 667 -556 -8 0 -31 16 -50 36 -148 155 -473
413 -606 482 -46 24 -83 45 -83 48 0 8 35 3 72 -10z m-2437 -26 c-12 -4 -27
-15 -34 -24 -7 -9 -19 -16 -25 -16 -6 0 -20 -15 -31 -32 -29 -51 -105 -127
-150 -152 -22 -13 -71 -31 -109 -41 -57 -15 -78 -27 -117 -64 -58 -57 -69 -92
-69 -231 -1 -95 -2 -103 -15 -86 -8 11 -15 29 -14 40 1 18 2 18 9 -4 5 -17 8
-1 8 50 -1 41 -3 63 -5 48 -4 -25 -8 -27 -56 -30 l-52 -3 -6 -85 c-3 -47 -16
-121 -29 -164 -16 -59 -20 -92 -16 -128 9 -67 90 -247 126 -279 36 -34 60 -43
60 -24 0 9 10 15 25 15 24 0 25 2 25 70 0 54 4 72 15 76 10 4 15 20 15 46 0
32 -3 39 -15 34 -8 -3 -22 -9 -30 -12 -30 -12 -15 32 18 51 17 10 73 49 122
86 116 87 174 119 373 207 157 70 264 102 338 102 53 0 40 -17 -23 -30 -171
-34 -245 -63 -463 -179 -84 -45 -157 -81 -164 -81 -7 0 -23 -11 -36 -25 l-23
-25 42 0 c44 0 87 17 311 121 181 83 315 109 570 109 81 0 198 -7 261 -15 125
-17 444 -36 608 -35 114 0 244 19 391 57 116 30 147 26 190 -25 17 -20 48 -55
67 -77 37 -41 93 -148 93 -176 0 -20 -62 -29 -205 -29 -112 0 -252 -28 -271
-54 -20 -28 -30 -18 -41 42 -6 32 -18 75 -27 96 -13 32 -19 37 -43 34 -27 -3
-28 -5 -31 -71 -2 -52 6 -103 32 -210 19 -78 42 -182 51 -232 9 -49 20 -101
26 -115 11 -24 11 -24 26 -5 12 17 14 53 11 212 l-4 192 76 20 c107 28 120 30
265 40 71 6 134 6 138 2 7 -7 47 -152 47 -171 0 -14 -62 -32 -140 -41 -41 -5
-113 -17 -160 -27 -70 -16 -85 -22 -85 -38 0 -16 7 -19 45 -18 63 1 232 32
240 43 3 6 31 13 61 17 52 6 57 5 77 -21 18 -22 22 -41 22 -96 0 -37 -3 -75
-6 -84 -9 -23 -129 -81 -231 -110 -57 -17 -134 -29 -218 -36 -71 -5 -166 -16
-210 -25 -101 -19 -294 -77 -405 -121 -47 -18 -91 -33 -97 -33 -7 0 -13 -4
-13 -8 0 -5 -89 -12 -197 -15 -112 -4 -239 -15 -293 -24 -69 -13 -151 -17
-304 -17 -236 0 -219 -7 -256 91 -22 59 -41 281 -21 253 5 -8 12 -12 15 -10 2
3 -1 71 -7 152 l-11 146 27 69 c44 109 85 157 175 202 42 21 94 44 115 50 20
7 35 16 32 21 -3 4 6 10 20 12 17 4 25 1 25 -8 0 -10 6 -8 19 5 11 11 58 28
112 41 134 31 291 30 417 -4 52 -13 95 -26 96 -28 20 -27 45 -80 50 -107 5
-30 4 -33 -14 -28 -16 4 -20 0 -20 -22 0 -35 45 -101 70 -101 16 0 20 -7 20
-33 0 -18 9 -67 20 -108 21 -79 64 -246 74 -291 4 -16 11 -28 18 -28 26 0 -26
438 -59 489 -9 14 -17 44 -19 68 -5 67 -77 197 -128 232 -156 108 -441 87
-761 -56 -158 -71 -238 -145 -294 -276 -14 -34 -38 -80 -53 -103 -44 -68 -46
-182 -8 -344 17 -71 31 -170 28 -194 -3 -20 -5 -19 -35 12 -17 17 -35 32 -40
32 -4 0 -35 18 -68 40 -33 22 -72 40 -86 40 -39 0 -56 52 -74 224 -9 85 -21
157 -28 165 -7 9 -18 28 -25 44 -6 15 -18 27 -26 27 -15 0 -26 21 -26 51 0 10
-3 19 -6 19 -28 0 -66 -158 -44 -185 6 -8 18 -47 27 -87 8 -39 23 -89 34 -110
l19 -38 -90 0 c-80 0 -160 17 -160 34 0 2 24 11 53 20 28 8 61 22 72 30 17 14
18 17 5 26 -8 6 -26 9 -40 6 -14 -2 -53 -9 -88 -15 -51 -9 -67 -9 -90 3 -30
16 -93 80 -112 115 -6 12 -16 21 -23 21 -7 1 -21 15 -32 33 -21 32 -79 77
-100 77 -46 0 -5 -66 160 -257 l37 -43 -214 0 c-117 1 -312 7 -433 15 -204 12
-228 16 -328 48 -72 23 -150 59 -230 105 -67 39 -140 77 -162 86 l-41 17 3 97
c6 189 24 396 37 426 15 35 161 134 237 162 70 24 232 20 369 -9 190 -41 486
-69 500 -47 4 6 35 15 69 20 34 5 78 18 97 29 19 12 44 21 55 21 39 0 1 -38
-56 -56 -30 -10 -55 -21 -55 -25 0 -4 -15 -10 -33 -13 -18 -3 -47 -20 -64 -36
l-30 -29 -7 -217 c-6 -188 -5 -219 8 -232 12 -12 20 -13 40 -4 23 10 25 16 30
116 3 59 9 153 12 212 l5 105 42 44 c33 33 53 46 85 51 23 4 54 17 69 30 16
14 46 25 77 29 109 14 133 32 151 113 4 18 13 36 20 38 7 3 19 19 25 35 16 37
87 84 141 93 46 7 121 44 161 78 14 13 54 56 88 96 56 66 64 72 98 71 30 0 33
-2 17 -9z m2345 -47 c0 -39 -229 -209 -415 -308 -50 -27 -98 -55 -108 -64 -10
-8 -37 -21 -60 -28 -23 -6 -80 -25 -127 -42 -178 -64 -155 -27 30 49 126 52
254 120 365 193 129 86 285 200 285 208 0 5 7 9 15 9 8 0 15 -8 15 -17z m3122
-59 c18 -65 24 -189 8 -199 -5 -3 -12 4 -15 17 -11 51 -35 204 -35 226 0 43
25 17 42 -44z m1728 -138 c0 -31 -29 -41 -75 -26 -57 19 -32 45 48 49 22 1 27
-3 27 -23z m-179 -75 l24 -19 -48 -21 c-66 -29 -70 -27 -47 19 23 45 37 49 71
21z m-9171 -243 c-82 -80 -103 -166 -98 -420 2 -144 0 -189 -9 -193 -23 -8
-14 -30 36 -84 l49 -53 -35 5 c-51 9 -96 56 -143 151 -73 149 -92 314 -47 411
23 49 126 155 150 155 7 0 22 11 34 24 26 27 83 57 96 49 5 -3 -10 -23 -33
-45z m3021 -22 c157 -27 279 -61 279 -77 0 -7 -10 -9 -26 -5 -133 34 -386 77
-504 86 -80 7 -149 17 -155 22 -17 18 248 1 406 -26z"/>
<path d="M8880 10819 c0 -19 86 -80 147 -105 49 -21 40 -1 -18 43 -101 74
-129 88 -129 62z"/>
<path d="M8780 10731 c0 -14 53 -50 101 -66 55 -20 81 -19 77 1 -4 23 -178 86
-178 65z"/>
<path d="M8632 10679 c2 -6 36 -29 76 -50 81 -43 156 -54 150 -22 -2 12 -21
20 -70 29 -36 7 -75 17 -87 23 -41 23 -73 32 -69 20z"/>
<path d="M8494 10637 c-8 -22 1 -34 32 -41 14 -4 57 -27 95 -53 38 -25 73 -43
77 -39 4 4 -1 12 -11 17 -9 6 -17 15 -17 22 0 7 -24 31 -54 55 -62 48 -112 64
-122 39z"/>
<path d="M9170 10563 c1 -29 153 -133 195 -133 24 0 18 16 -14 37 -15 10 -52
34 -82 54 -57 38 -99 56 -99 42z"/>
<path d="M8390 10546 c0 -16 69 -46 107 -46 41 0 63 14 47 30 -11 10 -154 25
-154 16z"/>
<path d="M8336 10456 c7 -18 69 -23 79 -6 3 6 0 10 -8 10 -8 0 -29 3 -46 6
-26 6 -30 4 -25 -10z"/>
<path d="M8300 10385 c0 -4 10 -16 22 -26 26 -24 108 -27 108 -5 0 8 -4 17 -9
20 -15 10 -121 19 -121 11z"/>
<path d="M9080 9970 c-39 -42 -73 -115 -65 -140 6 -20 8 -20 41 10 19 16 37
30 41 30 3 0 21 -9 39 -21 28 -17 34 -27 34 -56 0 -24 -7 -40 -22 -53 -13 -11
-36 -30 -53 -43 -24 -20 -27 -28 -20 -45 10 -21 10 -21 73 6 35 15 68 35 73
45 6 9 16 17 23 17 9 0 16 19 20 52 7 50 6 54 -21 76 -15 12 -49 32 -74 44
-43 20 -46 23 -34 42 7 12 16 31 20 44 10 35 -40 30 -75 -8z"/>
<path d="M8700 9353 c0 -47 29 -120 63 -157 18 -19 38 -43 45 -53 11 -16 12
-12 8 23 -2 23 -14 55 -26 72 -12 17 -31 54 -41 84 -20 60 -49 78 -49 31z"/>
<path d="M8690 9170 c0 -39 4 -52 20 -60 17 -9 20 -8 20 12 0 35 -20 98 -30
98 -6 0 -10 -22 -10 -50z"/>
<path d="M8536 9134 c-9 -23 -9 -23 39 -35 25 -6 45 -16 45 -21 0 -17 80 -127
100 -138 47 -25 7 63 -64 138 -26 28 -93 72 -110 72 -2 0 -7 -7 -10 -16z"/>
<path d="M8540 9018 c0 -29 71 -168 85 -168 22 0 -34 149 -63 168 -19 13 -22
13 -22 0z"/>
<path d="M7737 8954 c-21 -21 2 -114 28 -114 14 0 15 8 9 48 -6 47 -24 79 -37
66z"/>
<path d="M7625 8930 c-14 -16 -21 -17 -32 -8 -21 17 -31 0 -35 -57 -4 -66 18
-70 54 -10 28 47 48 58 48 27 0 -10 6 -27 14 -38 12 -15 17 -17 28 -6 10 10
10 17 0 32 -6 11 -12 28 -12 38 0 20 -18 42 -35 42 -7 0 -20 -9 -30 -20z"/>
<path d="M7935 8910 c-3 -5 0 -20 7 -32 6 -13 15 -43 18 -68 6 -56 32 -63 40
-10 5 35 5 35 29 -30 27 -74 36 -89 51 -74 7 7 2 36 -17 90 -25 69 -31 79 -51
77 -15 -2 -22 3 -22 14 0 8 -8 22 -17 29 -22 16 -30 17 -38 4z"/>
<path d="M8480 8883 c0 -24 45 -90 70 -103 29 -16 26 16 -5 62 -32 47 -65 67
-65 41z"/>
<path d="M8367 8842 c18 -45 76 -148 89 -155 23 -13 17 37 -10 91 -25 50 -39
64 -68 75 -13 5 -15 2 -11 -11z"/>
<path d="M8310 8763 c0 -31 59 -144 78 -151 18 -6 15 8 -22 94 -37 84 -56 104
-56 57z"/>
<path d="M8104 8698 c7 -74 16 -95 35 -84 24 15 0 156 -26 156 -14 0 -15 -11
-9 -72z"/>
<path d="M10164 8089 c-10 -17 95 -117 143 -135 81 -31 64 13 -30 79 -84 60
-104 70 -113 56z"/>
<path d="M9970 7823 c-156 -149 -282 -315 -316 -416 -9 -29 -22 -56 -29 -62
-15 -13 -90 -178 -127 -278 -21 -58 -28 -96 -28 -148 0 -67 20 -139 38 -139 5
0 12 46 16 102 5 88 12 114 47 197 65 154 189 370 284 496 28 39 88 109 133
157 82 88 118 141 107 158 -15 24 -51 5 -125 -67z"/>
<path d="M9040 7150 c-19 -12 -29 -190 -11 -190 6 0 11 5 11 12 0 6 13 0 28
-15 38 -36 139 -87 173 -87 36 0 49 24 49 89 0 60 -13 65 -41 16 -28 -47 -62
-47 -118 1 -34 30 -41 41 -37 63 3 14 8 47 12 74 6 47 6 47 -22 47 -16 0 -36
-5 -44 -10z"/>
<path d="M7900 7023 c0 -37 -5 -156 -11 -263 -9 -152 -8 -202 1 -225 11 -28
13 -28 21 -10 4 11 20 79 35 150 44 216 33 405 -24 413 -21 3 -22 -1 -22 -65z"/>
<path d="M8894 6955 c-7 -19 -14 -43 -14 -54 0 -30 -11 -51 -26 -51 -29 0 -13
-39 23 -59 30 -15 33 -14 33 9 0 23 42 45 49 26 4 -12 22 -26 33 -26 4 0 10 9
13 21 6 18 12 20 41 14 44 -8 46 13 3 49 -37 31 -62 33 -100 5 -32 -23 -38
-11 -14 31 22 38 19 70 -6 70 -13 0 -25 -11 -35 -35z"/>
<path d="M9735 6962 c-113 -69 -281 -373 -225 -407 21 -13 59 26 101 104 23
44 70 118 104 164 67 90 79 115 69 141 -8 20 -12 20 -49 -2z"/>
<path d="M9094 6792 c-44 -43 -92 -101 -107 -130 l-28 -52 28 1 c51 2 88 15
85 28 -2 8 27 58 64 112 59 87 71 119 45 119 -5 0 -44 -35 -87 -78z"/>
<path d="M9461 6408 c-12 -12 -23 -35 -26 -52 -2 -17 -12 -74 -20 -126 -9 -52
-38 -169 -65 -260 -65 -218 -146 -523 -155 -583 -4 -26 -10 -47 -14 -47 -45
-2 -147 -24 -167 -36 -14 -9 -37 -37 -52 -63 -14 -25 -35 -54 -44 -63 -39 -39
-12 -153 34 -146 37 5 62 52 66 123 l4 65 42 10 c162 42 191 59 202 118 3 20
21 87 39 147 18 61 47 175 65 255 17 80 40 183 51 230 10 47 26 148 35 225 13
111 22 149 41 183 24 41 24 42 4 42 -11 0 -29 -10 -40 -22z"/>
<path d="M10710 6028 c0 -2 -20 -59 -44 -128 -24 -69 -93 -267 -154 -440 -60
-173 -139 -387 -175 -475 -36 -88 -71 -180 -77 -205 -7 -24 -18 -49 -25 -55
-17 -13 -62 -156 -71 -223 -6 -44 -4 -51 14 -61 11 -6 25 -11 31 -11 23 0 63
52 92 121 17 41 69 153 114 249 46 96 93 209 104 250 11 41 31 105 45 142 35
92 70 236 101 413 14 83 37 193 51 245 32 124 35 173 12 178 -10 2 -18 2 -18
0z"/>
<path d="M9464 5225 c-303 -66 -344 -80 -344 -118 0 -19 202 1 320 31 113 29
246 76 265 94 15 13 -14 28 -55 27 -19 0 -103 -15 -186 -34z"/>
<path d="M7640 5140 c-58 -4 -106 -8 -108 -9 -2 0 -2 -11 0 -23 l3 -23 305 -3
c366 -4 464 2 491 29 10 10 19 24 19 29 0 11 -540 11 -710 0z"/>
<path d="M7347 5023 c-10 -10 -8 -83 2 -83 5 0 16 20 24 45 15 42 15 45 -2 45
-10 0 -21 -3 -24 -7z"/>
<path d="M8966 4953 c-13 -32 165 -256 187 -234 13 13 2 41 -52 123 -44 68
-101 128 -121 128 -4 0 -11 -8 -14 -17z"/>
<path d="M9270 4877 c0 -49 38 -150 82 -219 38 -58 83 -97 96 -83 4 4 1 10 -5
12 -7 3 -13 13 -13 24 0 25 -123 271 -144 288 -14 12 -16 9 -16 -22z"/>
<path d="M9992 4488 c-19 -25 -22 -74 -8 -161 9 -62 18 -91 31 -101 16 -12 11
-16 -49 -50 -116 -65 -191 -84 -426 -111 -118 -14 -354 -34 -525 -45 -490 -31
-473 -30 -480 -48 -3 -8 1 -23 10 -31 41 -41 990 -1 1257 54 42 9 112 34 165
61 78 39 102 58 162 124 76 83 91 111 91 166 0 48 -15 42 -45 -16 -27 -53 -49
-70 -89 -70 -22 0 -26 5 -26 29 0 52 20 136 35 147 24 18 17 34 -14 34 -16 0
-31 6 -35 15 -7 18 -40 20 -54 3z"/>
<path d="M9400 3670 c0 -32 365 -269 458 -296 57 -17 62 -17 62 0 0 46 -284
232 -452 296 -65 25 -68 25 -68 0z"/>
<path d="M10280 2754 c0 -43 60 -124 91 -124 33 0 -9 103 -54 135 -30 21 -37
19 -37 -11z"/>
<path d="M10200 2650 c-14 -23 -36 -55 -50 -72 -22 -29 -23 -30 -3 -20 23 13
86 108 81 123 -2 6 -15 -9 -28 -31z"/>
<path d="M7776 9501 c-33 -37 13 -91 50 -60 23 19 3 78 -27 79 -3 0 -14 -9
-23 -19z"/>
<path d="M3323 6510 c19 -147 145 -467 319 -814 61 -122 88 -160 88 -121 0 36
-375 935 -400 958 -9 9 -11 4 -7 -23z"/>
<path d="M2757 5883 c-11 -18 -18 -74 -12 -93 3 -11 16 -25 27 -31 19 -10 20
-9 15 10 -6 25 0 27 25 4 29 -26 31 -9 5 53 -23 54 -48 78 -60 57z"/>
<path d="M2805 5738 c-22 -6 -45 -12 -52 -14 -28 -7 -26 -132 2 -137 5 -1 13
15 18 36 8 34 12 37 45 37 19 0 51 5 69 12 32 11 35 10 63 -20 16 -18 34 -32
39 -32 6 0 11 -18 11 -40 0 -27 4 -40 13 -40 23 0 57 -45 57 -76 1 -16 8 -47
16 -69 9 -22 19 -58 24 -80 5 -22 12 -48 15 -57 7 -16 -2 -18 -99 -18 -58 0
-106 4 -106 9 0 5 -12 12 -27 15 -24 6 -31 17 -54 84 -56 164 -76 207 -98 210
-17 3 -21 -2 -21 -23 0 -30 36 -105 50 -105 6 0 10 -24 10 -52 1 -52 16 -88
39 -88 6 0 11 -4 11 -10 0 -5 7 -10 15 -10 11 0 15 -12 15 -50 l0 -50 48 6
c26 3 80 10 120 15 97 12 115 12 109 -3 -2 -7 -19 -13 -38 -13 -29 0 -34 -3
-33 -22 3 -94 5 -113 15 -113 6 0 9 9 6 20 -3 11 -1 20 4 20 5 0 9 7 9 15 0 8
7 15 15 15 16 0 45 49 45 78 0 30 11 33 38 12 23 -19 62 -27 62 -14 0 4 -18
28 -40 53 -67 77 -70 81 -70 91 0 6 11 10 25 10 22 0 25 4 25 33 0 35 -50 150
-71 162 -7 5 -26 11 -43 15 -34 7 -34 6 -22 108 9 69 -5 85 -26 31 l-13 -30
-45 34 c-43 33 -100 58 -124 56 -6 -1 -29 -6 -51 -11z m350 -343 c6 -37 5 -39
-9 -21 -9 11 -16 33 -16 50 0 41 17 22 25 -29z"/>
<path d="M2886 5493 c-27 -3 -40 -10 -43 -24 -3 -10 -9 -19 -14 -19 -5 0 -9
-4 -9 -10 0 -5 7 -10 15 -10 8 0 15 -7 15 -15 0 -8 6 -15 14 -15 8 0 16 7 20
15 4 12 24 15 86 15 80 0 95 8 67 33 -39 36 -57 39 -151 30z"/>
<path d="M5028 4560 c-21 -5 -66 -30 -100 -56 -35 -25 -93 -64 -130 -85 -96
-56 -121 -106 -47 -96 44 6 119 51 213 130 49 40 64 48 85 42 14 -4 60 -9 101
-12 67 -4 80 -2 120 21 48 27 47 29 -40 45 -90 17 -163 20 -202 11z"/>
<path d="M2204 2494 c-14 -34 -23 -88 -59 -374 -24 -193 -19 -320 14 -320 4 0
11 39 15 87 3 48 11 103 16 123 5 19 16 91 25 160 8 69 25 162 35 208 11 46
20 99 20 118 0 30 -3 34 -26 34 -19 0 -28 -8 -40 -36z"/>
<path d="M2426 2421 c-34 -55 -71 -293 -64 -415 5 -83 27 -146 52 -146 9 0 16
37 24 134 7 74 22 186 33 248 18 96 25 166 16 174 -9 10 -56 14 -61 5z"/>
<path d="M4413 2228 c3 -35 26 -126 51 -203 26 -77 50 -167 56 -200 5 -33 17
-105 25 -160 14 -83 14 -112 5 -168 -7 -37 -18 -74 -26 -82 -18 -17 -18 -25
-1 -25 13 0 43 36 66 79 15 28 61 302 49 295 -12 -7 -10 90 2 121 7 18 15 25
25 21 22 -8 19 27 -3 47 -24 22 -32 21 -32 -3 0 -11 -6 -20 -14 -20 -10 0 -17
-17 -21 -57 -12 -105 -23 -107 -53 -10 -22 69 -31 115 -38 197 -3 30 -13 93
-22 140 -16 82 -18 85 -46 88 l-29 4 6 -64z"/>
<path d="M4116 2152 c-6 -53 0 -231 10 -279 2 -13 9 -23 14 -23 5 0 10 76 12
178 3 158 1 178 -13 179 -13 1 -18 -11 -23 -55z"/>
<path d="M4652 1845 c0 -16 2 -22 5 -12 2 9 2 23 0 30 -3 6 -5 -1 -5 -18z"/>
<path d="M4100 1538 c0 -45 14 -115 24 -125 16 -16 17 13 5 87 -14 86 -29 106
-29 38z"/>
</g>
</svg>
